<?xml version="1.0" standalone="no"?>
<!DOCTYPE svg PUBLIC "-//W3C//DTD SVG 20010904//EN"
 "http://www.w3.org/TR/2001/REC-SVG-20010904/DTD/svg10.dtd">
<svg version="1.0" xmlns="http://www.w3.org/2000/svg"
 width="2150.000000pt" height="2150.000000pt" viewBox="0 0 2150.000000 2150.000000"
 preserveAspectRatio="xMidYMid meet">
<metadata>
Created by potrace 1.14, written by Peter Selinger 2001-2017
</metadata>
<g transform="translate(0.000000,2150.000000) scale(0.100000,-0.100000)"
fill="#000000" stroke="none">
<path d="M1840 18449 c-441 -45 -834 -235 -1160 -561 -311 -311 -485 -674
-530 -1108 -25 -239 -29 -833 -29 -3590 0 -2973 10 -4621 28 -4885 25 -352 56
-553 136 -870 239 -944 644 -1734 1243 -2423 152 -175 475 -491 661 -646 387
-322 744 -557 1171 -770 595 -296 1197 -472 1875 -550 349 -40 280 -40 5545
-40 4846 -1 5094 0 5280 17 1246 117 2329 562 3250 1337 183 154 558 531 714
719 434 521 744 1049 974 1657 202 534 316 1065 364 1689 19 248 19 8187 0
8320 -67 470 -222 808 -508 1104 -343 356 -739 554 -1203 601 -128 12 -17683
12 -17811 -1z m13488 -4370 c105 -26 241 -94 337 -167 118 -89 2535 -2513
2614 -2620 71 -97 122 -199 153 -309 20 -67 23 -101 23 -248 0 -147 -3 -181
-23 -250 -33 -115 -102 -248 -176 -340 -35 -44 -626 -641 -1313 -1326 -1093
-1091 -1258 -1252 -1331 -1298 -168 -106 -326 -153 -512 -154 -261 0 -477 86
-669 268 -124 117 -205 251 -258 422 -25 81 -27 102 -27 263 -1 192 11 258 74
396 70 154 85 171 1004 1091 534 534 886 895 894 914 l13 32 -894 896 c-932
934 -947 951 -1017 1105 -99 217 -111 488 -32 716 117 337 423 576 805 630 87
12 243 3 335 -21z m-8653 -13 c254 -75 452 -237 569 -466 83 -162 116 -296
116 -470 0 -129 -18 -224 -64 -337 -76 -186 -74 -183 -1028 -1138 -483 -484
-883 -887 -888 -895 -5 -8 -10 -24 -10 -35 0 -12 313 -333 898 -920 579 -580
912 -921 936 -958 167 -257 200 -546 98 -847 -38 -110 -73 -179 -134 -262
-188 -255 -532 -403 -861 -368 -176 18 -329 78 -477 187 -110 82 -2519 2492
-2599 2602 -209 284 -252 629 -120 947 71 171 45 143 1377 1478 686 686 1280
1274 1320 1307 94 76 176 121 288 158 130 44 180 50 344 47 121 -3 160 -8 235
-30z m5206 19 c208 -36 378 -124 516 -268 173 -179 260 -381 270 -627 7 -154
-11 -257 -69 -409 -22 -58 -391 -983 -820 -2056 -1213 -3031 -1138 -2850
-1223 -2970 -125 -177 -353 -322 -580 -371 -117 -25 -295 -23 -410 5 -108 26
-266 101 -356 169 -180 137 -316 351 -365 575 -25 113 -23 293 4 397 27 100
1977 4984 2029 5080 193 357 595 547 1004 475z"/>
</g>
</svg>
