<svg xmlns="http://www.w3.org/2000/svg" xmlns:xlink="http://www.w3.org/1999/xlink" width="285" height="225" viewBox="0 0 285 225"><defs><linearGradient id="a" x1="-0.013" y1="0.017" x2="0.829" y2="1.083" gradientUnits="objectBoundingBox"><stop offset="0" stop-color="#69edff"/><stop offset="1" stop-color="#ad7efd"/></linearGradient></defs><g transform="translate(-113.5 -143.5)"><path d="M398.5,263.5v75h-60v30h-105v-30h-120v-75h75v-30h75v30h75v-30h45v30Zm-285-120v30h15v-15h15v-15Zm45,15v30h15v-15h15v-15Zm-45,30v30h15v-15h15v-15Zm45,15v30h15v-15h15v-15Z" fill="url(#a)"/><rect width="15" height="15" transform="translate(203.5 248.5)" fill="#fff"/><rect width="15" height="15" transform="translate(353.5 248.5)" fill="#fff"/><path d="M278.5,308.5h-30v-60h-15v60h-15v-30h-15v30h-30v-30h-45v15h30v15h-30v15h165v-45h-15Z" fill="#fff"/><path d="M338.5,278.5v30h-15v-30h-15v75h15v-30h60v-45Zm30,30h-15v-15h15Z" fill="#fff"/><rect width="45" height="15" transform="translate(248.5 338.5)" fill="#fff"/></g></svg>